<mxfile host="65bd71144e">
    <diagram id="ziqhd9606AgguWupMi5V" name="第 1 页">
        <mxGraphModel dx="1089" dy="559" grid="1" gridSize="10" guides="1" tooltips="1" connect="1" arrows="1" fold="1" page="1" pageScale="1" pageWidth="827" pageHeight="1169" math="0" shadow="0">
            <root>
                <mxCell id="0"/>
                <mxCell id="1" parent="0"/>
                <mxCell id="50" value="" style="whiteSpace=wrap;html=1;strokeColor=#000000;fillColor=#FFFFFF;" vertex="1" parent="1">
                    <mxGeometry x="40" y="100" width="610" height="580" as="geometry"/>
                </mxCell>
                <mxCell id="16" value="" style="whiteSpace=wrap;html=1;strokeColor=#000000;fillColor=#FFFFFF;dashed=1;" vertex="1" parent="1">
                    <mxGeometry x="90" y="190" width="500" height="170" as="geometry"/>
                </mxCell>
                <mxCell id="12" style="edgeStyle=none;html=1;exitX=0.5;exitY=1;exitDx=0;exitDy=0;entryX=0.5;entryY=0;entryDx=0;entryDy=0;" edge="1" parent="1" source="2" target="5">
                    <mxGeometry relative="1" as="geometry"/>
                </mxCell>
                <mxCell id="2" value="客户端" style="whiteSpace=wrap;html=1;" vertex="1" parent="1">
                    <mxGeometry x="120" y="120" width="120" height="40" as="geometry"/>
                </mxCell>
                <mxCell id="13" style="edgeStyle=none;html=1;exitX=0.5;exitY=1;exitDx=0;exitDy=0;" edge="1" parent="1" source="3">
                    <mxGeometry relative="1" as="geometry">
                        <mxPoint x="340" y="200" as="targetPoint"/>
                    </mxGeometry>
                </mxCell>
                <mxCell id="3" value="客户端" style="whiteSpace=wrap;html=1;" vertex="1" parent="1">
                    <mxGeometry x="280" y="120" width="120" height="40" as="geometry"/>
                </mxCell>
                <mxCell id="14" style="edgeStyle=none;html=1;exitX=0.5;exitY=1;exitDx=0;exitDy=0;entryX=0.5;entryY=0;entryDx=0;entryDy=0;" edge="1" parent="1" source="4" target="5">
                    <mxGeometry relative="1" as="geometry"/>
                </mxCell>
                <mxCell id="4" value="客户端" style="whiteSpace=wrap;html=1;" vertex="1" parent="1">
                    <mxGeometry x="440" y="120" width="120" height="40" as="geometry"/>
                </mxCell>
                <mxCell id="5" value="外观类" style="whiteSpace=wrap;html=1;strokeColor=#000000;fillColor=#CCFF99;" vertex="1" parent="1">
                    <mxGeometry x="280" y="200" width="120" height="40" as="geometry"/>
                </mxCell>
                <mxCell id="9" style="edgeStyle=none;html=1;exitX=0.5;exitY=0;exitDx=0;exitDy=0;entryX=0.25;entryY=1;entryDx=0;entryDy=0;" edge="1" parent="1" source="6" target="5">
                    <mxGeometry relative="1" as="geometry"/>
                </mxCell>
                <mxCell id="6" value="Graphic" style="whiteSpace=wrap;html=1;fillColor=#CCCCCC;" vertex="1" parent="1">
                    <mxGeometry x="120" y="280" width="120" height="40" as="geometry"/>
                </mxCell>
                <mxCell id="10" style="edgeStyle=none;html=1;exitX=0.5;exitY=0;exitDx=0;exitDy=0;entryX=0.5;entryY=1;entryDx=0;entryDy=0;" edge="1" parent="1" source="7" target="5">
                    <mxGeometry relative="1" as="geometry"/>
                </mxCell>
                <mxCell id="7" value="Sound" style="whiteSpace=wrap;html=1;fillColor=#CCCCCC;" vertex="1" parent="1">
                    <mxGeometry x="280" y="280" width="120" height="40" as="geometry"/>
                </mxCell>
                <mxCell id="11" style="edgeStyle=none;html=1;exitX=0.5;exitY=0;exitDx=0;exitDy=0;entryX=0.75;entryY=1;entryDx=0;entryDy=0;" edge="1" parent="1" source="8" target="5">
                    <mxGeometry relative="1" as="geometry"/>
                </mxCell>
                <mxCell id="8" value="Chat" style="whiteSpace=wrap;html=1;fillColor=#CCCCCC;" vertex="1" parent="1">
                    <mxGeometry x="440" y="280" width="120" height="40" as="geometry"/>
                </mxCell>
                <mxCell id="48" value="" style="group" vertex="1" connectable="0" parent="1">
                    <mxGeometry x="110" y="390" width="455" height="240" as="geometry"/>
                </mxCell>
                <mxCell id="37" value="" style="group" vertex="1" connectable="0" parent="48">
                    <mxGeometry y="140" width="120" height="100" as="geometry"/>
                </mxCell>
                <mxCell id="28" value="" style="whiteSpace=wrap;html=1;fontSize=10;dashed=1;strokeColor=#000000;fillColor=#CCCCCC;" vertex="1" parent="37">
                    <mxGeometry width="120" height="100" as="geometry"/>
                </mxCell>
                <mxCell id="29" style="edgeStyle=none;html=1;exitX=0;exitY=0.25;exitDx=0;exitDy=0;entryX=1;entryY=0.25;entryDx=0;entryDy=0;fontSize=10;endArrow=none;endFill=0;" edge="1" parent="37" source="28" target="28">
                    <mxGeometry relative="1" as="geometry"/>
                </mxCell>
                <mxCell id="30" value="Graphic" style="text;html=1;align=center;verticalAlign=middle;resizable=0;points=[];autosize=1;strokeColor=none;fillColor=none;fontSize=10;dashed=1;" vertex="1" parent="37">
                    <mxGeometry x="30" width="60" height="30" as="geometry"/>
                </mxCell>
                <mxCell id="31" value="+fullScreen(bool)&lt;br&gt;&lt;div&gt;+antiAliasing(int);&lt;/div&gt;&lt;div&gt;&amp;nbsp;+setResolution(int);&lt;/div&gt;&lt;div&gt;+specialEffect(bool);&lt;/div&gt;&lt;div&gt;&lt;br&gt;&lt;/div&gt;" style="text;html=1;align=center;verticalAlign=middle;resizable=0;points=[];autosize=1;strokeColor=none;fillColor=none;fontSize=10;dashed=1;" vertex="1" parent="37">
                    <mxGeometry x="5" y="25" width="110" height="70" as="geometry"/>
                </mxCell>
                <mxCell id="38" value="" style="group" vertex="1" connectable="0" parent="48">
                    <mxGeometry x="160" y="140" width="130" height="100" as="geometry"/>
                </mxCell>
                <mxCell id="32" value="" style="whiteSpace=wrap;html=1;fontSize=10;dashed=1;strokeColor=#000000;fillColor=#CCCCCC;" vertex="1" parent="38">
                    <mxGeometry width="120" height="100" as="geometry"/>
                </mxCell>
                <mxCell id="33" style="edgeStyle=none;html=1;exitX=0;exitY=0.25;exitDx=0;exitDy=0;entryX=1;entryY=0.25;entryDx=0;entryDy=0;fontSize=10;endArrow=none;endFill=0;" edge="1" parent="38" source="32" target="32">
                    <mxGeometry relative="1" as="geometry"/>
                </mxCell>
                <mxCell id="34" value="Sound" style="text;html=1;align=center;verticalAlign=middle;resizable=0;points=[];autosize=1;strokeColor=none;fillColor=none;fontSize=10;dashed=1;" vertex="1" parent="38">
                    <mxGeometry x="35" width="50" height="30" as="geometry"/>
                </mxCell>
                <mxCell id="35" value="&lt;div&gt;+backgroundSound(bool)&lt;/div&gt;&lt;div&gt;+environmentSound(bool)&lt;/div&gt;&lt;div&gt;+emoticonSound(bool)&lt;/div&gt;&lt;div&gt;+setVolume(int)&lt;/div&gt;" style="text;html=1;align=center;verticalAlign=middle;resizable=0;points=[];autosize=1;strokeColor=none;fillColor=none;fontSize=10;dashed=1;" vertex="1" parent="38">
                    <mxGeometry x="-10" y="30" width="140" height="60" as="geometry"/>
                </mxCell>
                <mxCell id="39" value="" style="group" vertex="1" connectable="0" parent="48">
                    <mxGeometry x="160" width="120" height="100" as="geometry"/>
                </mxCell>
                <mxCell id="18" value="" style="whiteSpace=wrap;html=1;fontSize=10;fillColor=#647687;fontColor=#ffffff;strokeColor=#314354;dashed=1;" vertex="1" parent="39">
                    <mxGeometry width="120" height="100" as="geometry"/>
                </mxCell>
                <mxCell id="19" style="edgeStyle=none;html=1;exitX=0;exitY=0.25;exitDx=0;exitDy=0;entryX=1;entryY=0.25;entryDx=0;entryDy=0;fontSize=10;endArrow=none;endFill=0;" edge="1" parent="39" source="18" target="18">
                    <mxGeometry relative="1" as="geometry"/>
                </mxCell>
                <mxCell id="20" value="Fascade" style="text;html=1;align=center;verticalAlign=middle;resizable=0;points=[];autosize=1;strokeColor=none;fillColor=none;fontSize=10;dashed=1;" vertex="1" parent="39">
                    <mxGeometry x="30" width="60" height="30" as="geometry"/>
                </mxCell>
                <mxCell id="21" value="+lowConfigPc();&lt;br&gt;+highConfigPc();" style="text;html=1;align=center;verticalAlign=middle;resizable=0;points=[];autosize=1;strokeColor=none;fillColor=none;fontSize=10;dashed=1;" vertex="1" parent="39">
                    <mxGeometry x="10" y="40" width="100" height="40" as="geometry"/>
                </mxCell>
                <mxCell id="40" value="" style="group" vertex="1" connectable="0" parent="48">
                    <mxGeometry x="320" y="140" width="135" height="100" as="geometry"/>
                </mxCell>
                <mxCell id="41" value="" style="whiteSpace=wrap;html=1;fontSize=10;dashed=1;strokeColor=#000000;fillColor=#CCCCCC;" vertex="1" parent="40">
                    <mxGeometry width="120" height="100" as="geometry"/>
                </mxCell>
                <mxCell id="42" style="edgeStyle=none;html=1;exitX=0;exitY=0.25;exitDx=0;exitDy=0;entryX=1;entryY=0.25;entryDx=0;entryDy=0;fontSize=10;endArrow=none;endFill=0;" edge="1" parent="40" source="41" target="41">
                    <mxGeometry relative="1" as="geometry"/>
                </mxCell>
                <mxCell id="43" value="Chat" style="text;html=1;align=center;verticalAlign=middle;resizable=0;points=[];autosize=1;strokeColor=none;fillColor=none;fontSize=10;dashed=1;" vertex="1" parent="40">
                    <mxGeometry x="40" width="40" height="30" as="geometry"/>
                </mxCell>
                <mxCell id="44" value="&lt;div&gt;+setMicrophoneVolume(int)&lt;/div&gt;&lt;div&gt;+setMicrophoneSense(int)&lt;/div&gt;&lt;div&gt;+setChatVolume(int)&lt;/div&gt;" style="text;html=1;align=center;verticalAlign=middle;resizable=0;points=[];autosize=1;strokeColor=none;fillColor=none;fontSize=10;dashed=1;" vertex="1" parent="40">
                    <mxGeometry x="-15" y="35" width="150" height="50" as="geometry"/>
                </mxCell>
                <mxCell id="45" style="edgeStyle=none;html=1;exitX=0;exitY=1;exitDx=0;exitDy=0;entryX=0.394;entryY=0;entryDx=0;entryDy=0;entryPerimeter=0;" edge="1" parent="48" source="18" target="30">
                    <mxGeometry relative="1" as="geometry"/>
                </mxCell>
                <mxCell id="46" style="edgeStyle=none;html=1;" edge="1" parent="48" source="18" target="34">
                    <mxGeometry relative="1" as="geometry"/>
                </mxCell>
                <mxCell id="47" style="edgeStyle=none;html=1;exitX=1;exitY=1;exitDx=0;exitDy=0;entryX=0.533;entryY=-0.011;entryDx=0;entryDy=0;entryPerimeter=0;" edge="1" parent="48" source="18" target="43">
                    <mxGeometry relative="1" as="geometry"/>
                </mxCell>
            </root>
        </mxGraphModel>
    </diagram>
</mxfile>